<?xml version="1.0" standalone="no"?>
<!DOCTYPE svg PUBLIC "-//W3C//DTD SVG 20010904//EN"
 "http://www.w3.org/TR/2001/REC-SVG-20010904/DTD/svg10.dtd">
<svg version="1.0" xmlns="http://www.w3.org/2000/svg"
 width="600.000000pt" height="200.000000pt" viewBox="0 0 600.000000 200.000000"
 preserveAspectRatio="xMidYMid meet">

<g transform="translate(0.000000,200.000000) scale(0.100000,-0.100000)"
fill="#000000" stroke="none">
<path d="M2 1003 l-2 -1003 3003 2 3002 3 -2997 2 -2998 3 -3 998 -2 997 -3
-1002z"/>
<path d="M1808 1372 l3 -333 217 3 c210 3 218 4 261 28 59 33 86 79 86 150 0
71 -26 116 -84 146 -37 18 -41 23 -24 28 41 13 76 63 81 115 6 63 -2 92 -34
130 -39 47 -99 59 -319 63 l-190 4 3 -334z m340 166 c7 -7 12 -24 12 -38 0
-40 -18 -50 -92 -50 l-68 0 0 50 0 50 68 0 c40 0 73 -5 80 -12z m16 -247 c25
-27 17 -72 -14 -88 -14 -7 -53 -13 -87 -13 l-63 0 0 60 0 60 73 0 c60 0 77 -4
91 -19z"/>
<path d="M2445 1374 l0 -334 98 0 97 0 0 120 0 120 29 0 c66 0 88 -17 120 -93
16 -40 32 -89 36 -109 l7 -38 110 0 c84 0 109 3 105 13 -105 252 -117 274
-149 286 -19 7 -18 9 16 29 103 61 100 249 -5 303 -46 23 -77 26 -309 33
l-155 4 0 -334z m333 154 c7 -7 12 -27 12 -45 0 -41 -21 -53 -94 -53 l-56 0 0
55 0 55 63 0 c36 0 68 -5 75 -12z"/>
<path d="M3825 1374 l0 -334 98 0 97 0 0 120 0 120 29 0 c66 0 88 -17 120 -93
16 -40 32 -89 36 -109 l7 -38 110 0 c84 0 109 3 105 13 -105 252 -117 274
-149 286 -19 7 -18 9 16 29 103 61 100 249 -5 303 -46 23 -77 26 -309 33
l-155 4 0 -334z m333 154 c7 -7 12 -27 12 -45 0 -41 -21 -53 -94 -53 l-56 0 0
55 0 55 63 0 c36 0 68 -5 75 -12z"/>
<path d="M958 1370 l3 -330 249 0 250 0 0 85 0 85 -155 -7 -156 -6 3 251 3
252 -100 0 -100 0 3 -330z"/>
<path d="M1515 1370 l0 -330 100 0 100 0 0 330 0 330 -100 0 -100 0 0 -330z"/>
<path d="M3294 1673 c-4 -16 -54 -161 -110 -324 -57 -163 -104 -299 -104 -303
0 -3 47 -6 104 -6 91 0 105 2 109 18 3 9 11 41 17 70 l12 52 103 0 102 0 15
-67 14 -68 107 -3 c59 -1 107 -1 107 2 0 2 -47 138 -104 302 -58 165 -108 311
-112 327 l-6 27 -124 0 -124 0 -6 -27z m156 -228 c12 -44 24 -88 26 -97 5 -16
-2 -18 -50 -18 -31 0 -56 4 -56 8 0 5 6 31 14 58 8 27 20 69 26 93 6 23 13 41
15 40 1 -2 13 -40 25 -84z"/>
<path d="M4420 1694 c0 -3 8 -18 19 -32 10 -15 65 -103 121 -196 l102 -170 -4
-128 -3 -128 100 0 100 0 -3 130 -3 130 82 138 c45 75 100 163 121 194 21 31
38 59 38 62 0 4 -51 6 -114 6 l-113 0 -51 -105 c-28 -58 -54 -105 -57 -105 -3
0 -29 47 -57 105 l-51 105 -113 0 c-63 0 -114 -3 -114 -6z"/>
<path d="M299 1017 c-108 -31 -185 -103 -215 -202 -23 -76 -19 -210 7 -281 28
-73 93 -144 162 -175 43 -19 69 -23 152 -23 118 0 173 21 230 87 34 40 71 129
61 145 -3 5 -34 13 -68 16 -35 4 -75 10 -89 13 -22 4 -27 0 -41 -34 -29 -76
-127 -93 -187 -32 -66 66 -68 228 -3 301 21 23 39 31 75 35 43 5 49 3 82 -30
19 -19 35 -43 35 -52 0 -14 6 -16 30 -11 17 3 59 11 95 18 73 13 76 18 46 83
-24 52 -75 103 -131 128 -55 25 -176 32 -241 14z"/>
<path d="M1475 684 l0 -334 98 0 97 0 0 120 0 120 29 0 c66 0 88 -17 120 -93
16 -40 32 -89 36 -109 l7 -38 110 0 c84 0 109 3 105 13 -105 252 -117 274
-149 286 -19 7 -18 9 16 29 103 61 100 249 -5 303 -46 23 -77 26 -309 33
l-155 4 0 -334z m333 154 c7 -7 12 -27 12 -45 0 -41 -21 -53 -94 -53 l-56 0 0
55 0 55 63 0 c36 0 68 -5 75 -12z"/>
<path d="M2145 684 l0 -334 100 0 100 0 -3 104 -3 104 104 4 c95 3 109 6 153
34 116 71 140 251 45 345 -53 54 -111 66 -321 72 l-175 4 0 -333z m336 158
c28 -23 30 -73 4 -102 -14 -16 -31 -20 -82 -20 l-63 0 0 70 0 70 59 0 c42 0
65 -5 82 -18z"/>
<path d="M3000 1013 l-235 -3 3 -330 3 -329 254 -3 255 -3 0 85 0 85 -160 -3
-160 -3 0 51 0 52 140 -4 140 -3 0 83 0 82 -140 0 -140 0 0 40 0 40 155 0 155
0 0 85 c0 75 -2 85 -17 83 -10 -2 -124 -4 -253 -5z"/>
<path d="M4030 930 l0 -86 105 4 106 4 -3 -251 -3 -251 100 0 100 0 -4 251 -3
251 106 -4 106 -4 0 86 0 85 -305 0 -305 0 0 -85z"/>
<path d="M4695 684 l0 -334 98 0 97 0 0 120 0 120 29 0 c66 0 88 -17 120 -93
16 -40 32 -89 36 -109 l7 -38 110 0 c84 0 109 3 105 13 -105 252 -117 274
-149 286 -19 7 -18 9 16 29 103 61 100 249 -5 303 -46 23 -77 26 -309 33
l-155 4 0 -334z m333 154 c7 -7 12 -27 12 -45 0 -41 -21 -53 -94 -53 l-56 0 0
55 0 55 63 0 c36 0 68 -5 75 -12z"/>
<path d="M944 983 c-4 -16 -54 -161 -110 -324 -57 -163 -104 -299 -104 -303 0
-3 47 -6 104 -6 91 0 105 2 109 18 3 9 11 41 17 70 l12 52 103 0 102 0 15 -67
14 -68 107 -3 c59 -1 107 -1 107 2 0 2 -47 138 -104 302 -58 165 -108 311
-112 327 l-6 27 -124 0 -124 0 -6 -27z m156 -228 c12 -44 24 -88 26 -97 5 -16
-2 -18 -50 -18 -31 0 -56 4 -56 8 0 5 6 31 14 58 8 27 20 69 26 93 6 23 13 41
15 40 1 -2 13 -40 25 -84z"/>
<path d="M3355 680 l0 -330 98 0 99 0 -4 181 c-2 124 0 175 7 163 6 -9 49 -77
97 -150 48 -73 94 -146 103 -163 l16 -31 99 0 100 0 0 330 0 330 -97 0 -98 0
3 -177 3 -178 -100 149 c-55 83 -105 162 -112 178 l-11 28 -102 0 -101 0 0
-330z"/>
<path d="M5290 1004 c0 -3 8 -18 19 -32 10 -15 65 -103 121 -196 l102 -170 -4
-128 -3 -128 100 0 100 0 -3 130 -3 130 82 138 c45 75 100 163 121 194 21 31
38 59 38 62 0 4 -51 6 -114 6 l-113 0 -51 -105 c-28 -58 -54 -105 -57 -105 -3
0 -29 47 -57 105 l-51 105 -113 0 c-63 0 -114 -3 -114 -6z"/>
</g>
</svg>
